<?xml version="1.0" encoding="utf-8"?>
<!-- Generator: Adobe Illustrator 24.0.1, SVG Export Plug-In . SVG Version: 6.00 Build 0)  -->
<svg version="1.1" id="Layer_1" xmlns="http://www.w3.org/2000/svg" xmlns:xlink="http://www.w3.org/1999/xlink" x="0px" y="0px"
	 viewBox="0 0 2857 2524" enable-background="new 0 0 2857 2524" xml:space="preserve">
<g>
	<g opacity="0.3">
		<path fill="#390075" d="M2817,1361.3l-2.7-2.7c-25.7-25.9-60-40.2-96.4-40.3c-0.2,0-0.3,0-0.4,0c-36.3,0-70.4,14.1-96.2,39.7
			l-66.2,65.5V1082c21.5-4.9,41.3-17.4,54.8-36.8l67.6-97.1c28.8-41.4,18.6-98.5-22.8-127.3l-99.7-69.4V566.8
			c0-32.5-26.3-58.9-58.9-58.9H597.5c-32.5,0-58.9,26.4-58.9,58.9v1898.7c0,32.5,26.4,58.9,58.9,58.9h1898.6
			c32.5,0,58.9-26.3,58.9-58.9V1813l261.4-258.5C2869.8,1501.4,2870.1,1414.8,2817,1361.3z"/>
	</g>
	<g>
		<path fill="#40A3DB" d="M2489.4,468.6v1898.6c0,32.6-26.3,58.9-58.9,58.9H532c-32.6,0-59-26.4-59-58.9V468.6
			c0-32.4,26.4-58.9,59-58.9h1898.6C2463.1,409.8,2489.4,436.2,2489.4,468.6z"/>
	</g>
	<g opacity="0.55">
		<path fill="#FFFFFF" d="M2483.9,443.5c-6-2.1-12.5-3.2-19.2-3.2H566c-32.5,0-58.9,26.3-58.9,58.9v1898.6c0,9,2,17.6,5.6,25.2
			c-23.1-8-39.7-29.8-39.7-55.7V468.7c0-32.5,26.3-58.9,58.9-58.9h1898.7C2454.2,409.8,2474.5,423.6,2483.9,443.5z"/>
	</g>
	<g>
		<path fill="#390075" d="M2430.6,2443.7H532c-42.1,0-76.4-34.3-76.4-76.4V468.7c0-42.1,34.3-76.4,76.4-76.4h1898.6
			c42.1,0,76.4,34.3,76.4,76.4v1898.6C2507,2409.4,2472.7,2443.7,2430.6,2443.7z M532,427.3c-22.8,0-41.4,18.6-41.4,41.4v1898.6
			c0,22.8,18.6,41.4,41.4,41.4h1898.6c22.8,0,41.4-18.6,41.4-41.4V468.7c0-22.8-18.6-41.4-41.4-41.4H532z"/>
	</g>
	<g>
		<g>
			<path fill="#FFFFFF" d="M2360.9,2305.1H601.7c-4.1,0-7.5-3.3-7.5-7.5V538.4c0-4.1,3.3-7.5,7.5-7.5h1759.3c4.1,0,7.5,3.3,7.5,7.5
				v1759.3C2368.4,2301.8,2365.1,2305.1,2360.9,2305.1z M609.1,2290.2h1744.3V545.8H609.1V2290.2z"/>
		</g>
		<g opacity="0.46">
			<path fill="#FFFFFF" d="M2360.9,1420.5H601.7c-1.4,0-2.5-1.1-2.5-2.5s1.1-2.5,2.5-2.5h1759.3c1.4,0,2.5,1.1,2.5,2.5
				S2362.3,1420.5,2360.9,1420.5z"/>
		</g>
		<g opacity="0.46">
			<path fill="#FFFFFF" d="M2360.9,1061.6H601.7c-1.4,0-2.5-1.1-2.5-2.5c0-1.4,1.1-2.5,2.5-2.5h1759.3c1.4,0,2.5,1.1,2.5,2.5
				C2363.4,1060.5,2362.3,1061.6,2360.9,1061.6z"/>
		</g>
		<g opacity="0.46">
			<path fill="#FFFFFF" d="M2360.9,702.8H601.7c-1.4,0-2.5-1.1-2.5-2.5c0-1.4,1.1-2.5,2.5-2.5h1759.3c1.4,0,2.5,1.1,2.5,2.5
				C2363.4,701.7,2362.3,702.8,2360.9,702.8z"/>
		</g>
		<g opacity="0.46">
			<path fill="#FFFFFF" d="M2360.9,1779.4H601.7c-1.4,0-2.5-1.1-2.5-2.5s1.1-2.5,2.5-2.5h1759.3c1.4,0,2.5,1.1,2.5,2.5
				S2362.3,1779.4,2360.9,1779.4z"/>
		</g>
		<g opacity="0.46">
			<path fill="#FFFFFF" d="M2360.9,2138.2H601.7c-1.4,0-2.5-1.1-2.5-2.5c0-1.4,1.1-2.5,2.5-2.5h1759.3c1.4,0,2.5,1.1,2.5,2.5
				C2363.4,2137.1,2362.3,2138.2,2360.9,2138.2z"/>
		</g>
		<g opacity="0.46">
			<path fill="#FFFFFF" d="M1695,2300.1c-1.4,0-2.5-1.1-2.5-2.5V538.4c0-1.4,1.1-2.5,2.5-2.5s2.5,1.1,2.5,2.5v1759.3
				C1697.5,2299,1696.3,2300.1,1695,2300.1z"/>
		</g>
		<g opacity="0.46">
			<path fill="#FFFFFF" d="M1336.1,2300.1c-1.4,0-2.5-1.1-2.5-2.5V538.4c0-1.4,1.1-2.5,2.5-2.5c1.4,0,2.5,1.1,2.5,2.5v1759.3
				C1338.6,2299,1337.5,2300.1,1336.1,2300.1z"/>
		</g>
		<g opacity="0.46">
			<path fill="#FFFFFF" d="M977.3,2300.1c-1.4,0-2.5-1.1-2.5-2.5V538.4c0-1.4,1.1-2.5,2.5-2.5c1.4,0,2.5,1.1,2.5,2.5v1759.3
				C979.7,2299,978.6,2300.1,977.3,2300.1z"/>
		</g>
		<g opacity="0.46">
			<path fill="#FFFFFF" d="M2053.8,2300.1c-1.4,0-2.5-1.1-2.5-2.5V538.4c0-1.4,1.1-2.5,2.5-2.5s2.5,1.1,2.5,2.5v1759.3
				C2056.3,2299,2055.2,2300.1,2053.8,2300.1z"/>
		</g>
		<g opacity="0.46">
			<path fill="#FFFFFF" d="M2360.9,1420.5H815.3c-1.4,0-2.5-1.1-2.5-2.5s1.1-2.5,2.5-2.5h1545.6c1.4,0,2.5,1.1,2.5,2.5
				S2362.3,1420.5,2360.9,1420.5z"/>
		</g>
		<g opacity="0.46">
			<path fill="#FFFFFF" d="M2360.9,1061.7H815.3c-1.4,0-2.5-1.1-2.5-2.5c0-1.4,1.1-2.5,2.5-2.5h1545.6c1.4,0,2.5,1.1,2.5,2.5
				C2363.4,1060.5,2362.3,1061.7,2360.9,1061.7z"/>
		</g>
		<g opacity="0.46">
			<path fill="#FFFFFF" d="M2360.9,702.8H815.3c-1.4,0-2.5-1.1-2.5-2.5c0-1.4,1.1-2.5,2.5-2.5h1545.6c1.4,0,2.5,1.1,2.5,2.5
				C2363.4,701.7,2362.3,702.8,2360.9,702.8z"/>
		</g>
		<g opacity="0.46">
			<path fill="#FFFFFF" d="M2360.9,1779.3H815.3c-1.4,0-2.5-1.1-2.5-2.5c0-1.4,1.1-2.5,2.5-2.5h1545.6c1.4,0,2.5,1.1,2.5,2.5
				C2363.4,1778.2,2362.3,1779.3,2360.9,1779.3z"/>
		</g>
		<g opacity="0.46">
			<path fill="#FFFFFF" d="M2360.9,2138.2H815.3c-1.4,0-2.5-1.1-2.5-2.5c0-1.4,1.1-2.5,2.5-2.5h1545.6c1.4,0,2.5,1.1,2.5,2.5
				C2363.4,2137.1,2362.3,2138.2,2360.9,2138.2z"/>
		</g>
	</g>
	<g>
		<path fill="#FFFFFF" d="M1470.8,1938.8H993.6c-49.3,0-89.4-40.1-89.4-89.4V963.6c0-49.3,40.1-89.4,89.4-89.4h477.2
			c49.3,0,89.4,40.1,89.4,89.4v885.8C1560.2,1898.7,1520.1,1938.8,1470.8,1938.8z M993.6,901.1c-34.5,0-62.5,28-62.5,62.5v885.8
			c0,34.5,28,62.5,62.5,62.5h477.2c34.5,0,62.5-28,62.5-62.5V963.6c0-34.5-28-62.5-62.5-62.5H993.6z"/>
	</g>
	<g>
		<path fill="#FFFFFF" d="M1932.1,1107.7h-245.4c-5.9,0-10.8-4.8-10.8-10.8s4.8-10.8,10.8-10.8h245.4c5.9,0,10.8,4.8,10.8,10.8
			S1938.1,1107.7,1932.1,1107.7z"/>
	</g>
	<g>
		<path fill="#FFFFFF" d="M2035.8,1172.2h-349.1c-5.9,0-10.8-4.8-10.8-10.8s4.8-10.8,10.8-10.8h349.1c5.9,0,10.8,4.8,10.8,10.8
			S2041.8,1172.2,2035.8,1172.2z"/>
	</g>
	<g>
		<path fill="#FFFFFF" d="M2035.8,1236.8h-349.1c-5.9,0-10.8-4.8-10.8-10.8s4.8-10.8,10.8-10.8h349.1c5.9,0,10.8,4.8,10.8,10.8
			S2041.8,1236.8,2035.8,1236.8z"/>
	</g>
	<g>
		<path fill="#FFFFFF" d="M2035.8,1539.3h-349.1c-5.9,0-10.8-4.8-10.8-10.8s4.8-10.8,10.8-10.8h349.1c5.9,0,10.8,4.8,10.8,10.8
			S2041.8,1539.3,2035.8,1539.3z"/>
	</g>
	<g>
		<path fill="#FFFFFF" d="M1932.1,1604.2h-245.4c-5.9,0-10.8-4.8-10.8-10.8s4.8-10.8,10.8-10.8h245.4c5.9,0,10.8,4.8,10.8,10.8
			S1938.1,1604.2,1932.1,1604.2z"/>
	</g>
	<g>
		<path fill="#FFFFFF" d="M1256.4,1359.5c-1.9,0-3.8-0.7-5.3-2c-3.3-2.9-3.7-8-0.7-11.4l224.9-254.5c1.5-1.7,3.7-2.7,6-2.7H1622
			c4.5,0,8.1,3.6,8.1,8.1s-3.6,8.1-8.1,8.1h-137.1l-222.5,251.8C1260.8,1358.6,1258.6,1359.5,1256.4,1359.5z"/>
	</g>
	<g>
		<path fill="#FFFFFF" d="M1622,1536.6h-215.1c-4.5,0-8.1-3.6-8.1-8.1c0-4.5,3.6-8.1,8.1-8.1H1622c4.5,0,8.1,3.6,8.1,8.1
			C1630.1,1532.9,1626.5,1536.6,1622,1536.6z"/>
	</g>
	<g opacity="0.3">
		<g>
			<path fill="#390075" d="M2489.4,1488.3v389.5l-349.9,346c-8.8,8.7-19.7,15-31.6,18.1l-222.4,58.8c-1.3,0.4-2.8,0.5-4.1,0.5
				c-4.3,0-8.4-1.6-11.5-4.8c-4.1-4.1-5.7-10-4.2-15.6l60.3-222c3.2-11.9,9.5-22.8,18.3-31.5L2489.4,1488.3z"/>
		</g>
		<g>
			<path fill="#390075" d="M2489.4,748v366.6c-2.4-1.4-4.7-2.8-6.9-4.4l-267-186c-20-13.9-33.4-34.9-37.7-58.9
				c-4.3-24,1-48.4,15-68.4l67.6-97.1c13.9-20,34.9-33.4,58.9-37.7c24.1-4.3,48.3,1,68.4,15L2489.4,748z"/>
		</g>
	</g>
	<g opacity="0.3">
		<path fill="#390075" d="M1379.7,409.8h-560l388,157L473,876.6v228l1284.5-541.9L1379.7,409.8z M532,409.8c-32.6,0-59,26.4-59,58.9
			v377.1l173.6-436H532z"/>
	</g>
	<g>
		<g opacity="0.3">
			<path fill="#5F5A57" stroke="#390075" stroke-width="0" stroke-miterlimit="10" d="M2001.8,2144.5c2.6,5.4,5.5,10.6,8.7,15.6
				C2007.4,2155.1,2004.5,2149.9,2001.8,2144.5z"/>
		</g>
		<g opacity="0.3">
			<path fill="#5F5A57" stroke="#390075" stroke-width="0" stroke-miterlimit="10" d="M2001.8,2144.5c-3.7-7.5-7-15.3-9.8-23.3
				C1994.7,2129.2,1998,2137,2001.8,2144.5z"/>
		</g>
		<g opacity="0.3">
			<path fill="#5F5A57" stroke="#390075" stroke-width="0" stroke-miterlimit="10" d="M1990.1,2115.3c-1.2-4-2.4-8.1-3.3-12.2
				C1987.7,2107.2,1988.8,2111.2,1990.1,2115.3z"/>
		</g>
		<g>
			<path fill="#1EBC61" d="M1867.5,2000.3l-60.2,222l222.4-58.9c7.9-2.1,15.2-5.9,21.4-11.2c1-0.9,2-1.8,3-2.7l624.3-617l52.5-52.1
				c47.2-46.9,47.4-123.1,0.5-170.3l-2.7-2.7c-46.9-47.2-123.1-47.4-170.3-0.5l-59.2,58.8l-617.6,610.4c-1,0.9-1.9,1.9-2.7,2.9
				C1873.5,1985,1869.7,1992.3,1867.5,2000.3z"/>
		</g>
		<g>
			<path fill="#F8BF71" stroke="#390075" stroke-width="0" stroke-miterlimit="10" d="M1867.5,2000.3l-60.2,222l222.4-58.9
				c7.9-2.1,15.2-5.9,21.4-11.2c36.5-45.7-126.2-209.4-172.2-173.4C1873.5,1985,1869.7,1992.3,1867.5,2000.3z"/>
		</g>
		<g>
			<path fill="#F4CB00" d="M2431.5,1432.8l0-0.1c43.7-43.4,216.2,130.2,172.5,173.6l-0.1,0l56.7-56.3l0.1,0
				c43.7-43.4-128.8-217.1-172.5-173.6l0,0.1L2431.5,1432.8z"/>
		</g>
		<g>
			<path fill="#F22525" d="M2499.3,1365.5c89.1,32,145,90.8,179.1,166.9l52.5-52.1c47.2-46.9,47.4-123.1,0.5-170.3l-2.7-2.7
				c-46.9-47.2-123.1-47.4-170.3-0.5L2499.3,1365.5z"/>
		</g>
		<g opacity="0.55">
			<path fill="#FFFFFF" d="M1854.2,1996.2l-60.2,222l56.7-15l41.6-153.3c2.1-7.9,6-15.3,11.4-21.4c0.9-1,1.8-2,2.7-2.9l617.6-610.4
				l59.2-58.8c44.8-44.5,115.7-46.5,162.9-6.3c-5.8-16.1-15.1-31.3-27.9-44.3l-2.7-2.7c-46.9-47.2-123.1-47.4-170.3-0.5l-59.2,58.8
				l-617.6,610.4c-1,0.9-1.9,1.9-2.7,2.9C1860.2,1981,1856.3,1988.3,1854.2,1996.2z"/>
		</g>
		<g opacity="0.3">
			<path fill="#390075" d="M1825.5,2155l-18.2,67.2l222.4-58.9c7.9-2.1,15.2-5.9,21.4-11.2c1-0.9,2-1.8,3-2.7l624.3-617l52.5-52.1
				c47.2-46.9,47.4-123.1,0.5-170.3l-2.7-2.7c-7.1-7.2-14.9-13.2-23.1-18.2c23.8,45.5,16.6,103.1-21.8,141.2l-52.5,52.1l-624.3,617
				c-1,0.9-1.9,1.9-3,2.7c-6.2,5.3-13.5,9.2-21.4,11.2L1825.5,2155z"/>
		</g>
		<g>
			<path fill="#390075" d="M1807.3,2238.4c-4.2,0-8.4-1.7-11.4-4.8c-4.1-4.1-5.6-10-4.1-15.6l60.2-222c3.2-11.9,9.6-22.8,18.3-31.5
				l676.8-669.2c25.8-25.6,59.9-39.7,96.2-39.7c0.1,0,0.3,0,0.4,0c36.5,0.1,70.7,14.4,96.4,40.3l2.7,2.7
				c53.1,53.4,52.8,140.1-0.6,193.1l-676.8,669.2c-8.7,8.7-19.7,15-31.6,18.1l-222.4,58.8C1810,2238.2,1808.7,2238.4,1807.3,2238.4z
				 M2643.3,1287.8c-27.7,0-53.8,10.8-73.5,30.3c0,0,0,0,0,0L1893,1987.4c-4.7,4.7-8.2,10.6-9.9,17.1l-52.9,195.1l195.4-51.7
				c6.5-1.7,12.4-5.1,17.2-9.8l676.8-669.2c40.8-40.5,41-106.7,0.4-147.5l-2.7-2.7c-19.6-19.8-45.8-30.7-73.7-30.8
				C2643.5,1287.8,2643.4,1287.8,2643.3,1287.8z M2558.4,1306.7L2558.4,1306.7L2558.4,1306.7z"/>
		</g>
		<g>
			<path fill="#390075" d="M1836,2116.3l-28.7,106l106.1-28.1C1893.5,2165.8,1864.3,2136.4,1836,2116.3z"/>
		</g>
		<g>
			<path fill="#390075" d="M2660.7,1563.5c-5.7,0-11-3.6-12.8-9.3c-1.7-5.3,0-10.8,3.8-14.3c3.8-4.5,2.7-12.7,1.1-18.8
				c-12.2-46.2-89.6-124.1-135.8-136.6c-6.3-1.7-14.7-2.9-19.2,1.3c-3.6,3.7-9.1,5.2-14.2,3.4c-7-2.5-10.7-10.1-8.2-17.1
				c0.7-1.9,1.8-3.7,3.2-5.2c7.4-7.4,21.4-14.8,45.4-8.3c56,15.2,139.9,99.6,154.7,155.7c6.4,24.1-1.2,37.9-8.6,45.3
				c-1.5,1.5-3.3,2.6-5.3,3.2C2663.5,1563.3,2662.1,1563.5,2660.7,1563.5z"/>
		</g>
		<g>
			<path fill="#390075" d="M2604,1619.8c-5.7,0-11-3.6-12.8-9.3c-1.7-5.3,0-10.8,3.9-14.3c3.8-4.5,2.7-12.7,1.1-18.8
				c-12.2-46.2-89.6-124.1-135.8-136.6c-6.3-1.7-14.7-2.9-19.2,1.2c-3.5,3.7-8.9,5.2-14,3.5c-7-2.4-10.8-10-8.4-17
				c0.7-2,1.8-3.9,3.3-5.3c7.4-7.4,21.3-14.8,45.4-8.3c56,15.2,139.9,99.6,154.7,155.7c6.4,24.1-1.2,37.9-8.6,45.3
				c-1.5,1.5-3.3,2.6-5.3,3.2C2606.8,1619.6,2605.4,1619.8,2604,1619.8z"/>
		</g>
		<g>
			<path fill="#390075" d="M2049.4,2167.7c-5.7,0-11-3.6-12.8-9.3c-1.7-5.3,0-10.8,3.8-14.3c3.8-4.5,2.7-12.7,1.1-18.8
				c-12.2-46.2-89.6-124.1-135.8-136.6c-6.3-1.7-14.7-2.9-19.2,1.3c-3.6,3.7-9.1,5.2-14.2,3.4c-7-2.5-10.7-10.1-8.2-17.1
				c0.7-1.9,1.8-3.7,3.2-5.2c7.4-7.4,21.4-14.8,45.4-8.3c56,15.2,139.9,99.6,154.7,155.7c6.4,24.1-1.2,37.9-8.6,45.3
				c-1.5,1.5-3.3,2.6-5.3,3.2C2052.2,2167.5,2050.8,2167.7,2049.4,2167.7z"/>
		</g>
	</g>
	<g>
		<g>
			<path fill="#F95AB5" d="M2417.6,991.9l-267-186c-34.1-23.8-42.5-70.7-18.7-104.8l67.6-97.1c23.8-34.1,70.7-42.5,104.8-18.7
				l267,186c34.1,23.8,42.5,70.7,18.7,104.8l-67.6,97.1C2498.6,1007.3,2451.7,1015.7,2417.6,991.9z"/>
		</g>
		<g opacity="0.3">
			<path fill="#390075" d="M2590,876.1l-67.6,97.1c-23.8,34.1-70.7,42.5-104.8,18.7l-267-186c-23.3-16.2-34.6-43.2-31.8-69.6
				c5.3,8.9,12.5,16.8,21.6,23.2l267,186c34.1,23.8,81,15.4,104.8-18.7l67.6-97.1c7.5-10.8,11.8-22.9,13.1-35.2
				C2607.6,819.1,2607.4,851.1,2590,876.1z"/>
		</g>
		<g opacity="0.55">
			<path fill="#FFFFFF" d="M2603.3,838.7c-5.4-11-13.6-20.7-24.4-28.2l-267-186c-34.1-23.8-81-15.4-104.8,18.7l-67.6,97.1
				c-8,11.5-12.3,24.4-13.3,37.3c-11.8-23.8-10.6-53.2,5.7-76.5l67.6-97.1c23.8-34.1,70.7-42.5,104.8-18.7l267,186
				C2593.9,787.1,2605.2,813.1,2603.3,838.7z"/>
		</g>
		<g>
			<path fill="#390075" d="M2460.4,1021.6c-18.5,0-36.6-5.6-52.1-16.4l0,0l-267-186c-20-14-33.4-34.9-37.7-58.9
				c-4.3-24,1-48.3,15-68.3l67.6-97.1c28.8-41.3,85.9-51.6,127.3-22.8l267,186c41.4,28.8,51.6,85.9,22.8,127.3l-67.6,97.1
				c-14,20-34.9,33.4-58.9,37.7C2471.3,1021.1,2465.8,1021.6,2460.4,1021.6z M2426.8,978.7c26.8,18.6,63.7,12,82.3-14.7l67.6-97.1
				c18.6-26.8,12-63.7-14.7-82.3l-267-186c-26.8-18.6-63.7-12-82.3,14.7l-67.6,97.1c-18.6,26.8-12,63.7,14.7,82.3L2426.8,978.7z"/>
		</g>
	</g>
	<g>
		<g>
			<g>
				<path fill="#F4CB00" d="M486.9,15.3L11,1211.1l1679.9-708.7L486.9,15.3z M603.9,289.2l537,217.2L391.6,822.6L603.9,289.2z"/>
			</g>
		</g>
		<g opacity="0.3">
			<path fill="#390075" d="M486.9,15.3l-18,45.3l1098.2,444.2L34.8,1151.3L11,1211.1l1679.9-708.7L486.9,15.3z"/>
		</g>
		<g opacity="0.65">
			<path fill="#FFFFFF" d="M1128.2,511.8l-689.8,291l-0.1,0.1c-6.3,15.7,9.5,31.1,25.1,24.6l665-280.6
				C1144.1,540.4,1143.9,518.2,1128.2,511.8L1128.2,511.8z M481.1,17.8L5.2,1213.5l52.5-22.2L516.8,38l1161.3,469.7l7-3L481.1,17.8z
				"/>
		</g>
		<g>
			<path fill="#390075" d="M11,1226.1c-3.9,0-7.6-1.5-10.5-4.3c-4.3-4.2-5.7-10.6-3.4-16.3L473,9.8c1.5-3.7,4.4-6.7,8-8.2
				c3.7-1.6,7.8-1.6,11.5-0.1l1204,487c5.6,2.3,9.3,7.7,9.4,13.8c0,6.1-3.6,11.6-9.2,13.9L16.8,1224.9
				C14.9,1225.7,12.9,1226.1,11,1226.1z M495.3,34.9L38.2,1183.3l1613.4-680.7L495.3,34.9z M391.6,837.6c-3.9,0-7.6-1.5-10.5-4.3
				c-4.3-4.2-5.7-10.6-3.4-16.3L590,283.6c1.5-3.7,4.4-6.7,8-8.2c3.7-1.6,7.8-1.6,11.5-0.1l537,217.2c5.6,2.3,9.3,7.7,9.4,13.8
				c0,6.1-3.6,11.6-9.2,13.9L397.5,836.4C395.6,837.2,393.6,837.6,391.6,837.6z M612.3,308.7L418.8,794.8l682.9-288.1L612.3,308.7z"
				/>
		</g>
		<g>
			<path fill="#390075" d="M391.6,837.6c-3.9,0-7.6-1.5-10.5-4.3c-4.3-4.2-5.7-10.6-3.4-16.3L590,283.6c1.5-3.7,4.4-6.7,8-8.2
				c3.7-1.6,7.8-1.6,11.5-0.1l537,217.2c5.6,2.3,9.3,7.7,9.4,13.8c0,6.1-3.6,11.6-9.2,13.9L397.5,836.4
				C395.6,837.2,393.6,837.6,391.6,837.6z M612.3,308.7L418.8,794.8l682.9-288.1L612.3,308.7z"/>
		</g>
		<g>
			<path fill="#390075" d="M391.6,837.6c-3.9,0-7.6-1.5-10.5-4.3c-4.3-4.2-5.7-10.6-3.4-16.3L590,283.6c1.5-3.7,4.4-6.7,8-8.2
				c3.7-1.6,7.8-1.6,11.5-0.1l537,217.2c5.6,2.3,9.3,7.7,9.4,13.8c0,6.1-3.6,11.6-9.2,13.9L397.5,836.4
				C395.6,837.2,393.6,837.6,391.6,837.6z M612.3,308.7L418.8,794.8l682.9-288.1L612.3,308.7z"/>
		</g>
		<g>
			<path fill="#390075" d="M212.1,1136.2c-3.9,0-7.6-2.3-9.2-6.1l-35.6-84.5c-2.1-5.1,0.2-11,5.3-13.1c5.1-2.1,11,0.2,13.1,5.3
				l35.6,84.5c2.1,5.1-0.2,11-5.3,13.1C214.7,1136,213.4,1136.2,212.1,1136.2z"/>
		</g>
		<g>
			<path fill="#390075" d="M281.2,1107.1c-3.9,0-7.6-2.3-9.2-6.1l-18.8-44.6c-2.1-5.1,0.2-11,5.3-13.1c5.1-2.1,11,0.2,13.1,5.3
				l18.8,44.6c2.1,5.1-0.2,11-5.3,13.1C283.8,1106.8,282.5,1107.1,281.2,1107.1z"/>
		</g>
		<g>
			<path fill="#390075" d="M350.3,1077.9c-3.9,0-7.6-2.3-9.2-6.1l-18.8-44.5c-2.1-5.1,0.2-11,5.3-13.1c5.1-2.1,11,0.2,13.1,5.3
				l18.8,44.5c2.1,5.1-0.2,11-5.3,13.1C352.9,1077.7,351.6,1077.9,350.3,1077.9z"/>
		</g>
		<g>
			<path fill="#390075" d="M419.4,1048.8c-3.9,0-7.6-2.3-9.2-6.1l-18.8-44.6c-2.1-5.1,0.2-11,5.3-13.1c5.1-2.2,11,0.2,13.1,5.3
				l18.8,44.6c2.1,5.1-0.2,11-5.3,13.1C422,1048.5,420.7,1048.8,419.4,1048.8z"/>
		</g>
		<g>
			<path fill="#390075" d="M488.5,1019.6c-3.9,0-7.6-2.3-9.2-6.1L443.7,929c-2.1-5.1,0.2-11,5.3-13.1c5.1-2.1,11,0.2,13.1,5.3
				l35.6,84.5c2.1,5.1-0.2,11-5.3,13.1C491.1,1019.4,489.8,1019.6,488.5,1019.6z"/>
		</g>
		<g>
			<path fill="#390075" d="M561.8,993.7c-3.3,0-6.4-1.9-7.7-5.1l-13.2-31.3c-1.8-4.3,0.2-9.2,4.5-11c4.3-1.8,9.2,0.2,11,4.5
				l13.2,31.3c1.8,4.3-0.2,9.2-4.5,11C564,993.5,562.9,993.7,561.8,993.7z"/>
		</g>
		<g>
			<path fill="#390075" d="M626.7,961.3c-3.9,0-7.6-2.3-9.2-6.1l-18.8-44.6c-2.1-5.1,0.2-11,5.3-13.1c5.1-2.2,11,0.2,13.1,5.3
				l18.8,44.6c2.1,5.1-0.2,11-5.3,13.1C629.3,961.1,628,961.3,626.7,961.3z"/>
		</g>
		<g>
			<path fill="#390075" d="M695.8,932.1c-3.9,0-7.6-2.3-9.2-6.1l-18.8-44.5c-2.1-5.1,0.2-11,5.3-13.1c5.1-2.2,11,0.2,13.1,5.3
				l18.8,44.5c2.1,5.1-0.2,11-5.3,13.1C698.4,931.9,697.1,932.1,695.8,932.1z"/>
		</g>
		<g>
			<path fill="#390075" d="M764.9,903c-3.9,0-7.6-2.3-9.2-6.1l-35.6-84.5c-2.1-5.1,0.2-11,5.3-13.1c5.1-2.1,11,0.2,13.1,5.3
				l35.6,84.5c2.1,5.1-0.2,11-5.3,13.1C767.5,902.7,766.2,903,764.9,903z"/>
		</g>
		<g>
			<path fill="#390075" d="M834,873.8c-3.9,0-7.6-2.3-9.2-6.1L806,823.2c-2.1-5.1,0.2-11,5.3-13.1c5.1-2.1,11,0.2,13.1,5.3
				l18.8,44.6c2.1,5.1-0.2,11-5.3,13.1C836.7,873.6,835.3,873.8,834,873.8z"/>
		</g>
		<g>
			<path fill="#390075" d="M903.1,844.7c-3.9,0-7.6-2.3-9.2-6.1L875.1,794c-2.1-5.1,0.2-11,5.3-13.1c5.1-2.1,11,0.2,13.1,5.3
				l18.8,44.5c2.1,5.1-0.2,11-5.3,13.1C905.8,844.4,904.4,844.7,903.1,844.7z"/>
		</g>
		<g>
			<path fill="#390075" d="M972.2,815.5c-3.9,0-7.6-2.3-9.2-6.1l-18.8-44.5c-2.1-5.1,0.2-11,5.3-13.1c5.1-2.1,11,0.2,13.1,5.3
				l18.8,44.5c2.1,5.1-0.2,11-5.3,13.1C974.9,815.3,973.5,815.5,972.2,815.5z"/>
		</g>
		<g>
			<path fill="#390075" d="M1041.3,786.4c-3.9,0-7.6-2.3-9.2-6.1l-35.6-84.5c-2.1-5.1,0.2-11,5.3-13.1c5.1-2.1,11,0.2,13.1,5.3
				l35.6,84.5c2.1,5.1-0.2,11-5.3,13.1C1044,786.1,1042.6,786.4,1041.3,786.4z"/>
		</g>
		<g>
			<path fill="#390075" d="M1110.4,757.2c-3.9,0-7.6-2.3-9.2-6.1l-18.8-44.5c-2.1-5.1,0.2-11,5.3-13.1c5.1-2.1,11,0.2,13.1,5.3
				l18.8,44.5c2.1,5.1-0.2,11-5.3,13.1C1113.1,757,1111.7,757.2,1110.4,757.2z"/>
		</g>
		<g>
			<path fill="#390075" d="M1179.5,728.1c-3.9,0-7.6-2.3-9.2-6.1l-18.8-44.6c-2.1-5.1,0.2-11,5.3-13.1c5.1-2.1,11,0.2,13.1,5.3
				l18.8,44.6c2.1,5.1-0.2,11-5.3,13.1C1182.2,727.8,1180.8,728.1,1179.5,728.1z"/>
		</g>
		<g>
			<path fill="#390075" d="M1248.7,698.9c-3.9,0-7.6-2.3-9.2-6.1l-18.8-44.5c-2.1-5.1,0.2-11,5.3-13.1c5.1-2.1,11,0.2,13.1,5.3
				l18.8,44.5c2.1,5.1-0.2,11-5.3,13.1C1251.3,698.7,1249.9,698.9,1248.7,698.9z"/>
		</g>
		<g>
			<path fill="#390075" d="M1317.8,669.8c-3.9,0-7.6-2.3-9.2-6.1l-35.6-84.5c-2.1-5.1,0.2-11,5.3-13.1c5.1-2.1,11,0.2,13.1,5.3
				l35.6,84.5c2.1,5.1-0.2,11-5.3,13.1C1320.4,669.5,1319,669.8,1317.8,669.8z"/>
		</g>
		<g>
			<path fill="#390075" d="M1386.9,640.6c-3.9,0-7.6-2.3-9.2-6.1l-18.8-44.6c-2.1-5.1,0.2-11,5.3-13.1c5.1-2.1,11,0.2,13.1,5.3
				l18.8,44.6c2.1,5.1-0.2,11-5.3,13.1C1389.5,640.4,1388.2,640.6,1386.9,640.6z"/>
		</g>
		<g>
			<path fill="#390075" d="M1456,611.5c-3.9,0-7.6-2.3-9.2-6.1l-18.8-44.5c-2.1-5.1,0.2-11,5.3-13.1c5.1-2.1,11,0.2,13.1,5.3
				l18.8,44.5c2.1,5.1-0.2,11-5.3,13.1C1458.6,611.2,1457.3,611.5,1456,611.5z"/>
		</g>
	</g>
</g>
<g>
</g>
<g>
</g>
<g>
</g>
<g>
</g>
<g>
</g>
<g>
</g>
<g>
</g>
<g>
</g>
<g>
</g>
<g>
</g>
<g>
</g>
</svg>
